<?xml version="1.0" standalone="no"?>
<!DOCTYPE svg PUBLIC "-//W3C//DTD SVG 20010904//EN"
 "http://www.w3.org/TR/2001/REC-SVG-20010904/DTD/svg10.dtd">
<svg version="1.0" xmlns="http://www.w3.org/2000/svg"
 width="272.000000pt" height="272.000000pt" viewBox="0 0 272.000000 272.000000"
 preserveAspectRatio="xMidYMid meet">
<metadata>
Created by potrace 1.14, written by Peter Selinger 2001-2017
</metadata>
<g transform="translate(0.000000,272.000000) scale(0.100000,-0.100000)"
fill="#000000" stroke="none">
<path d="M1000 2714 c-468 -18 -814 -69 -869 -128 -96 -104 -154 -899 -121
-1641 22 -477 62 -746 121 -811 65 -70 453 -118 1054 -130 687 -14 1325 45
1404 130 152 166 179 1941 35 2384 -10 31 -29 63 -45 77 -52 43 -278 83 -594
105 -155 11 -818 20 -985 14z m1190 -663 c88 -20 173 -52 184 -69 5 -9 -35
-136 -46 -148 -3 -2 -30 7 -60 20 -64 29 -188 56 -251 56 -212 0 -368 -121
-433 -335 -26 -85 -26 -315 0 -400 43 -143 132 -252 244 -297 50 -20 74 -23
197 -23 132 0 145 2 230 32 49 18 90 31 91 30 2 -4 44 -145 44 -150 0 -11
-110 -46 -191 -62 -109 -21 -304 -21 -384 0 -144 37 -265 123 -344 244 -103
160 -138 444 -79 654 69 252 235 407 493 461 57 11 226 4 305 -13z m-1090
-458 c0 -471 -7 -588 -41 -677 -28 -75 -96 -148 -172 -186 -133 -65 -366 -56
-518 21 -63 31 -64 39 -24 118 l35 71 50 -31 c69 -42 130 -59 214 -59 155 0
227 53 255 188 7 35 11 218 11 527 l0 475 95 0 95 0 0 -447z"/>
</g>
</svg>
